<?xml version="1.0" encoding="UTF-8"?>
<svg id="Layer_1" data-name="Layer 1" xmlns="http://www.w3.org/2000/svg" viewBox="0 0 639.16 418.57">
  <g>
    <path d="M155.93,182.07c-.2-5.2-1.85-9.1-4.95-11.7-3.1-2.6-6.65-3.9-10.65-3.9-4.8,0-8.5,1.55-11.1,4.65-2.6,3.1-3.9,6.65-3.9,10.65,0,2.8,.7,5.55,2.1,8.25,1.4,2.7,5,5.15,10.8,7.35l18,7.2c11.4,4.4,19.25,10.4,23.55,18,4.3,7.6,6.45,15.9,6.45,24.9,0,6.4-1.15,12.35-3.45,17.85-2.3,5.5-5.45,10.35-9.45,14.55-4,4.2-8.8,7.5-14.4,9.9-5.6,2.4-11.7,3.6-18.3,3.6-12.4,0-22.8-3.9-31.2-11.7-4.2-3.8-7.6-8.55-10.2-14.25-2.6-5.7-4-12.35-4.2-19.95h28.8c.6,4.2,2.05,8.1,4.35,11.7,2.3,3.6,6.35,5.4,12.15,5.4,4.4,0,8.35-1.45,11.85-4.35,3.5-2.9,5.25-6.95,5.25-12.15,0-4.2-1.1-7.8-3.3-10.8-2.2-3-6.2-5.6-12-7.8l-14.7-5.4c-9.6-3.6-17.15-8.95-22.65-16.05-5.5-7.1-8.25-15.75-8.25-25.95,0-6.4,1.2-12.35,3.6-17.85,2.4-5.5,5.7-10.25,9.9-14.25,4-4,8.7-7.05,14.1-9.15,5.4-2.1,11.2-3.15,17.4-3.15s11.95,1.1,17.25,3.3c5.3,2.2,9.85,5.3,13.65,9.3,3.8,4,6.8,8.75,9,14.25,2.2,5.5,3.3,11.35,3.3,17.55h-28.8Z"/>
    <path d="M206.03,291.57V139.47h30.6v14.7h0c-.05,1.98,2.67,2.59,3.46,.78,2.64-6.05,6.1-10.85,8.69-12.63,4.5-3.1,10.25-4.65,17.25-4.65,6.6,0,15.62,4.17,18.46,6.3,2.21,1.67,6.69,7.83,8.08,13.36,.48,1.9,3.11,2.06,3.82,.24,2.51-6.51,6.39-13.34,9.54-15.4,4.6-3,11-4.5,19.2-4.5,3.8,0,7.7,.65,11.7,1.95,4,1.3,7.6,3.45,10.8,6.45,3.2,3,5.8,6.85,7.8,11.55,2,4.7,3,10.45,3,17.25v116.7h-30.6v-105.3c0-5.6-1.3-10-3.9-13.2-2.6-3.2-6.3-4.8-11.1-4.8-5.8,0-9.8,1.8-12,5.4-2.2,3.6-3.3,8.8-3.3,15.6v102.3h-30.6v-105.3c0-5.6-1.3-10-3.9-13.2-2.6-3.2-6.3-4.8-11.1-4.8-5.8,0-9.8,1.8-12,5.4-2.2,3.6-3.3,8.8-3.3,15.6v102.3h-30.6Z"/>
    <path d="M383.63,352.33V140.2c0-.41,.33-.74,.74-.74h29.13c.41,0,.74,.33,.74,.74v10.6c0,2.49,3.35,3.26,4.46,1.04,2.36-4.75,5.16-8.12,7.24-9.67,4-3,9.8-4.5,17.4-4.5,12.6,0,21.5,4.8,26.7,14.4,1.8,3.4,3.1,7.6,3.9,12.6,.8,5,1.2,11.7,1.2,20.1v57.9c0,11.2-.3,19.3-.9,24.3-1.2,10-5.8,17.5-13.8,22.5-4,2.6-9.8,3.9-17.4,3.9-6,0-11.35-1.35-16.05-4.05-3.32-1.91-7.42-4.32-10.17-12-.5-1.4-2.58-1.04-2.58,.45h0v74.56c0,.41-.33,.74-.74,.74h-29.13c-.41,0-.74-.33-.74-.74Zm60.9-163.36c0-6.2-1.2-11.2-3.6-15-2.4-3.8-6.2-5.7-11.4-5.7-4.6,0-8.3,1.75-11.1,5.25-2.8,3.5-4.2,8.05-4.2,13.65v59.1c0,4.8,1.45,8.75,4.35,11.85,2.9,3.1,6.55,4.65,10.95,4.65,5.8,0,9.75-1.8,11.85-5.4,2.1-3.6,3.15-7.8,3.15-12.6v-55.8Z"/>
    <path d="M498.52,77.97h30.6V248.67c0,5.8,1.05,9.75,3.15,11.85,2.1,2.1,6.05,3.45,11.85,4.05v28.8c-7,0-13.3-.55-18.9-1.65-5.6-1.1-10.4-3.25-14.4-6.45-4-3-7.05-7.25-9.15-12.75-2.1-5.5-3.15-12.75-3.15-21.75V77.97Z"/>
  </g>
  <path d="M225.6,125.2v-30.6h30.6v30.6h-30.6Z"/>
</svg>